{"title":"Scott Pilgrim Vs The World 2010 DVDRiP XViD-MC8","uid":5918211,"size":746870539,"categoryP":"video","categoryS":"movies","magnet":"?xt=urn:btih:954d3751de1a2b904291cec257c7379ed4d9abd6&amp;dn=Scott+Pilgrim+Vs+The+World+2010+DVDRiP+XViD-MC8&amp;tr=udp%3A%2F%2Ftracker.openbittorrent.com%3A80&amp;tr=udp%3A%2F%2Fopen.demonii.com%3A1337&amp;tr=udp%3A%2F%2Ftracker.coppersurfer.tk%3A6969&amp;tr=udp%3A%2F%2Fexodus.desync.com%3A6969","seeders":1,"leechers":0,"uploader":"IwannaFan2","files":3,"time":1288313553,"description":"Filename:\nScott Pilgrim Vs The World 2010 DVDRiP XViD-MC8\n &lt;a href=&quot;\nhttp://www.imdb.com/title/tt0446029/&quot; rel=&quot;nofollow&quot; target=&quot;_NEW&quot;&gt;\nhttp://www.imdb.com/title/tt0446029/&lt;/a&gt;\n\nVideo\nID                               : 0\nFormat                           : MPEG-4 Visual\nFormat profile                   : AdvancedSimple@L5\nFormat settings, BVOP            : Yes\nFormat settings, QPel            : No\nFormat settings, GMC             : No warppoints\nFormat settings, Matrix          : Default (H.263)\nMuxing mode                      : Packed bitstream\nCodec ID                         : XVID\nCodec ID/Hint                    : XviD\nDuration                         : 1h 52mn\nBit rate                         : 737 Kbps\nWidth                            : 648 pixels\nHeight                           : 350 pixels\nDisplay aspect ratio             : 1.851\nFrame rate                       : 23.976 fps\nResolution                       : 24 bits\nColorimetry                      : 4:2:0\nScan type                        : Progressive\nBits/(Pixel*Frame)               : 0.135\nStream size                      : 593 MiB (84%)\nWriting library                  : XviD 1.3.0.dev55\n\nAudio\nID                               : 1\nFormat                           : MPEG Audio\nFormat version                   : Version 1\nFormat profile                   : Layer 3\nFormat_Settings_Mode             : Joint stereo / MS Stereo\nCodec ID                         : 55\nCodec ID/Hint                    : MP3\nDuration                         : 1h 52mn\nBit rate mode                    : Variable\nBit rate                         : 123 Kbps\nMinimum bit rate                 : 96.0 Kbps\nChannel(s)                       : 2 channels\nSampling rate                    : 48.0 KHz\nResolution                       : 16 bits\nStream size                      : 98.7 MiB (14%)\nAlignment                        : Aligned on interleaves\nInterleave, duration             : 24 ms (0.58 video frame)\nInterleave, preload duration     : 150 ms\nWriting library                  : LAME3.98r\nEncoding settings                : -m j -V 4 -q 0 -lowpass 17.5 --vbr-new -b 96","torrent":{"xt":"urn:btih:954d3751de1a2b904291cec257c7379ed4d9abd6","amp;dn":"Scott+Pilgrim+Vs+The+World+2010+DVDRiP+XViD-MC8","amp;tr":["udp%3A%2F%2Ftracker.openbittorrent.com%3A80","udp%3A%2F%2Fopen.demonii.com%3A1337","udp%3A%2F%2Ftracker.coppersurfer.tk%3A6969","udp%3A%2F%2Fexodus.desync.com%3A6969"],"infoHash":"954d3751de1a2b904291cec257c7379ed4d9abd6","infoHashBuffer":{"type":"Buffer","data":[149,77,55,81,222,26,43,144,66,145,206,194,87,199,55,158,212,217,171,214]},"announce":[],"urlList":[]}}